# xmcd CD database file
#
# Track frame offsets:
#	150
#	18783
#	33612
#	50766
#	62593
#	75100
#	87982
#	101473
#	115311
#	127424
#	140174
#	152324
#	167924
#	186478
#	198778
#	210628
#	222403
#	233325
#	245288
#	263738
#	279826
#	295314
#	313427
#	326402
#	341506
#
# Disc length: 4742 seconds
#
# Revision: 0
# Processed by: cddbd v1.5.2PL0 Copyright (c) Steve Scherf et al.
# Submitted via: CDex 1.78
#
DISCID=6a128419
DTITLE=Django Reinhardt - plays the blues
DYEAR=1900
DGENRE=Blues
TTITLE0=uptown blues
TTITLE1=uptown blues
TTITLE2=a blues riff
TTITLE3=blues
TTITLE4=minor blues
TTITLE5=blues for barclay
TTITLE6=blues for barclay
TTITLE7=django's blues
TTITLE8=blues clair
TTITLE9=minor swing
TTITLE10=blues primitif
TTITLE11=blues en mineur
TTITLE12=st. louis blues
TTITLE13=minor blues
TTITLE14=minor swing
TTITLE15=c jam blues
TTITLE16=minor swing
TTITLE17=royal garden blues
TTITLE18=st. louis blues
TTITLE19=c jam blues
TTITLE20=boogie woogie
TTITLE21=blues
TTITLE22=blues
TTITLE23=blues for ike
TTITLE24=d.r. blues
EXTD=
EXTT0=
EXTT1=
EXTT2=
EXTT3=
EXTT4=
EXTT5=
EXTT6=
EXTT7=
EXTT8=
EXTT9=
EXTT10=
EXTT11=
EXTT12=
EXTT13=
EXTT14=
EXTT15=
EXTT16=
EXTT17=
EXTT18=
EXTT19=
EXTT20=
EXTT21=
EXTT22=
EXTT23=
EXTT24=
PLAYORDER=
